<svg width="26" height="26" viewBox="0 0 26 26" fill="none" xmlns="http://www.w3.org/2000/svg">
<circle cx="8" cy="8" r="8" fill="#971C4E" fill-opacity="0.15"/>
<path fill-rule="evenodd" clip-rule="evenodd" d="M8.91135 20.4955C10.1355 21.6012 11.4765 22.514 12.9907 23.2338C13.8017 23.6194 14.7637 23.5842 15.5413 23.1406C16.8527 22.3925 17.994 21.4922 19.0975 20.4955C21.4367 18.3827 22.8004 15.4749 22.89 12.4085L22.9944 8.83295C23.0066 8.41675 22.9951 7.5 22.9951 7.5C22.4716 7.4136 21.9424 7.35025 21.4139 7.28695C19.7791 7.0912 18.1512 6.89632 16.7227 6.02323L15.7038 5.40046C14.8302 4.86652 13.7091 4.86651 12.8355 5.40046L11.8597 5.99684C10.2267 6.99493 8.2361 7.1841 6.30936 7.3672C5.87291 7.40865 5.43975 7.4498 5.01476 7.5C5.01476 7.5 5.00242 8.42225 5.01476 8.84435L5.11889 12.4085C5.20848 15.4749 6.57211 18.3827 8.91135 20.4955ZM6.00938 8.40095C6.00976 8.56015 6.01119 8.70785 6.01433 8.81515L6.11846 12.3793C6.19985 15.1648 7.4385 17.8177 9.5816 19.7534C10.7374 20.7973 11.9979 21.6546 13.42 22.3307C13.9368 22.5763 14.5534 22.553 15.0457 22.2721C16.2733 21.5718 17.3554 20.7214 18.4272 19.7534C20.5704 17.8177 21.809 15.1648 21.8904 12.3793L21.9949 8.80375C21.9982 8.6918 21.9996 8.5347 22 8.3664C21.7659 8.33625 21.5282 8.3078 21.2852 8.2787L21.2579 8.27545C20.7203 8.21105 20.1568 8.14315 19.5969 8.04815C18.4749 7.85775 17.3011 7.54865 16.2013 6.87648L15.1823 6.25372C14.6288 5.91543 13.9105 5.91543 13.357 6.25372L12.3812 6.85009C11.2219 7.55865 9.9413 7.8944 8.70795 8.0929C7.94305 8.216 7.1192 8.2947 6.34734 8.3685C6.23344 8.37935 6.12067 8.39015 6.00938 8.40095Z" fill="#971C4E"/>
<path fill-rule="evenodd" clip-rule="evenodd" d="M12.9994 18.4997L12.9999 9.49994L14.9999 9.50004L14.9994 18.4998L12.9994 18.4997Z" fill="#971C4E"/>
<path fill-rule="evenodd" clip-rule="evenodd" d="M18.4999 14.9999H9.49991V12.9999H18.4999V14.9999Z" fill="#971C4E"/>
</svg>
