<?xml version="1.0" encoding="UTF-8" standalone="no" ?>
<!DOCTYPE svg PUBLIC "-//W3C//DTD SVG 1.1//EN" "http://www.w3.org/Graphics/SVG/1.1/DTD/svg11.dtd">
<svg xmlns="http://www.w3.org/2000/svg" xmlns:xlink="http://www.w3.org/1999/xlink" version="1.1" width="1080" height="1080" viewBox="0 0 1080 1080" xml:space="preserve">
<desc>Created with Fabric.js 5.2.4</desc>
<defs>
</defs>
<rect x="0" y="0" width="100%" height="100%" fill="transparent"></rect>
<g transform="matrix(1 0 0 1 540 540)" id="26ae284f-6cde-4504-8786-8c5dddcdc6a0"  >
</g>
<g transform="matrix(1 0 0 1 540 540)" id="7329bb96-2b2f-42b5-9eb7-12d1c2361980"  >
<rect style="stroke: none; stroke-width: 1; stroke-dasharray: none; stroke-linecap: butt; stroke-dashoffset: 0; stroke-linejoin: miter; stroke-miterlimit: 4; fill: rgb(255,255,255); fill-rule: nonzero; opacity: 1; visibility: hidden;" vector-effect="non-scaling-stroke"  x="-540" y="-540" rx="0" ry="0" width="1080" height="1080" />
</g>
<g transform="matrix(1 0 0 1 396.06 396.55)"  >
<path style="stroke: none; stroke-width: 1; stroke-dasharray: none; stroke-linecap: butt; stroke-dashoffset: 0; stroke-linejoin: miter; stroke-miterlimit: 4; fill: rgb(0,0,0); fill-rule: evenodd; opacity: 1;" vector-effect="non-scaling-stroke"  transform=" translate(-14, -14.25)" d="M 8.91135 20.4955 C 10.1355 21.6012 11.4765 22.514 12.9907 23.2338 C 13.8017 23.6194 14.7637 23.5842 15.5413 23.1406 C 16.8527 22.3925 17.994 21.4922 19.0975 20.4955 C 21.4367 18.3827 22.8004 15.4749 22.89 12.4085 L 22.9944 8.83295 C 23.0066 8.41675 22.9951 7.5 22.9951 7.5 C 22.4716 7.4136 21.9424 7.35025 21.4139 7.28695 C 19.7791 7.0912 18.1512 6.89632 16.7227 6.02323 L 15.7038 5.40046 C 14.8302 4.86652 13.7091 4.86651 12.8355 5.40046 L 11.8597 5.99684 C 10.2267 6.99493 8.2361 7.1841 6.30936 7.3672 C 5.87291 7.40865 5.43975 7.4498 5.01476 7.5 C 5.01476 7.5 5.00242 8.42225 5.01476 8.84435 L 5.11889 12.4085 C 5.20848 15.4749 6.57211 18.3827 8.91135 20.4955 Z M 6.00938 8.40095 C 6.00976 8.56015 6.01119 8.70785 6.01433 8.81515 L 6.11846 12.3793 C 6.19985 15.1648 7.4385 17.8177 9.5816 19.7534 C 10.7374 20.7973 11.9979 21.6546 13.42 22.3307 C 13.9368 22.5763 14.5534 22.553 15.0457 22.2721 C 16.2733 21.5718 17.3554 20.7214 18.4272 19.7534 C 20.5704 17.8177 21.809 15.1648 21.8904 12.3793 L 21.9949 8.80375 C 21.9982 8.6918 21.9996 8.5347 22 8.3664 C 21.7659 8.33625 21.5282 8.3078 21.2852 8.2787 L 21.2579 8.27545 C 20.7203 8.21105 20.1568 8.14315 19.5969 8.04815 C 18.4749 7.85775 17.3011 7.54865 16.2013 6.87648 L 15.1823 6.25372 C 14.6288 5.91543 13.9105 5.91543 13.357 6.25372 L 12.3812 6.85009 C 11.2219 7.55865 9.9413 7.8944 8.70795 8.0929 C 7.94305 8.216 7.1192 8.2947 6.34734 8.3685 C 6.23344 8.37935 6.12067 8.39015 6.00938 8.40095 Z" stroke-linecap="round" />
</g>
<g transform="matrix(1 0 0 1 396.05 396.29)"  >
<path style="stroke: none; stroke-width: 1; stroke-dasharray: none; stroke-linecap: butt; stroke-dashoffset: 0; stroke-linejoin: miter; stroke-miterlimit: 4; fill: rgb(3,3,3); fill-rule: evenodd; opacity: 1;" vector-effect="non-scaling-stroke"  transform=" translate(-14, -14)" d="M 12.9994 18.4997 L 12.9999 9.49994 L 14.9999 9.50004 L 14.9994 18.4998 L 12.9994 18.4997 Z" stroke-linecap="round" />
</g>
<g transform="matrix(1 0 0 1 396.05 396.3)"  >
<path style="stroke: none; stroke-width: 1; stroke-dasharray: none; stroke-linecap: butt; stroke-dashoffset: 0; stroke-linejoin: miter; stroke-miterlimit: 4; fill: rgb(0,0,0); fill-rule: evenodd; opacity: 1;" vector-effect="non-scaling-stroke"  transform=" translate(-14, -14)" d="M 18.4999 14.9999 L 9.49991 14.9999 L 9.49991 12.9999 L 18.4999 12.9999 L 18.4999 14.9999 Z" stroke-linecap="round" />
</g>
</svg>