<svg width="24" height="24" viewBox="0 0 24 24" fill="none" xmlns="http://www.w3.org/2000/svg">
<path d="M22.6324 7.56489L14.3177 0.790277C13.0339 -0.261379 10.9582 -0.261379 9.68638 0.778048L1.37163 7.56489C0.435768 8.32306 -0.164141 9.92494 0.0398277 11.1233L1.63559 20.8573C1.92354 22.5937 3.55529 24 5.28303 24H18.721C20.4367 24 22.0805 22.5815 22.3685 20.8573L23.9642 11.1233C24.1562 9.92494 23.5563 8.32306 22.6324 7.56489ZM12.002 16.2838C10.3463 16.2838 9.00247 14.9142 9.00247 13.2266C9.00247 11.5391 10.3463 10.1695 12.002 10.1695C13.6578 10.1695 15.0016 11.5391 15.0016 13.2266C15.0016 14.9142 13.6578 16.2838 12.002 16.2838Z" fill="#611232"/>
</svg>
