<svg width="26" height="26" viewBox="0 0 26 26" fill="none" xmlns="http://www.w3.org/2000/svg">
<circle cx="8" cy="8" r="8" fill="#971C4E" fill-opacity="0.15"/>
<path fill-rule="evenodd" clip-rule="evenodd" d="M5.40908 8.682C5.18314 8.90795 5.18314 9.27425 5.40908 9.5002C5.63501 9.72615 6.00132 9.72615 6.22726 9.5002L6.63661 9.09085L8.6818 11.1361L7.04545 12.7725C6.8195 12.9984 6.8195 13.3647 7.04545 13.5907C7.27135 13.8166 7.63765 13.8166 7.8636 13.5907L8.6816 12.7726L15.6363 19.7275C16.475 20.5663 17.7008 20.7823 18.7388 20.3756L19.3181 20.9549C19.621 21.2578 20.0501 21.3577 20.4362 21.2544L21.7728 22.591C21.9987 22.817 22.365 22.817 22.5909 22.591C22.8169 22.3651 22.8169 21.9988 22.5909 21.7728L21.2542 20.436C21.3571 20.0501 21.2572 19.6213 20.9545 19.3185L20.3752 18.7392C20.782 17.7011 20.566 16.4753 19.7272 15.6365L12.7725 8.6816L13.5908 7.86325C13.8168 7.6373 13.8168 7.271 13.5908 7.04505C13.3649 6.81912 12.9986 6.81912 12.7727 7.04505L11.1363 8.68145L9.09115 6.63624L9.49995 6.2274C9.7259 6.00146 9.7259 5.63514 9.49995 5.4092C9.27405 5.18326 8.90775 5.18326 8.6818 5.4092L5.40908 8.682ZM10.4292 9.3886L8.38405 7.34335L7.3437 8.3837L9.3889 10.429L10.4292 9.3886ZM12.0654 9.38875L9.3887 12.0655L11.5917 14.2686L14.2684 11.5918L12.0654 9.38875ZM12.4099 15.0868L13.6371 16.3141L14.5665 15.3847C14.7924 15.1588 15.1587 15.1588 15.3847 15.3847C15.6106 15.6107 15.6106 15.977 15.3847 16.2029L14.4553 17.1323L15.2733 17.9503L16.2028 17.0208C16.4287 16.7949 16.795 16.7949 17.021 17.0208C17.2469 17.2468 17.2469 17.6131 17.021 17.839L16.0915 18.7685L16.3434 19.0204C16.8925 19.5695 17.6949 19.7107 18.3743 19.444L19.4438 18.3746C19.7104 17.6952 19.5692 16.8927 19.0201 16.3437L15.0865 12.41L12.4099 15.0868ZM20.2612 20.0415C20.257 20.0359 20.2524 20.0306 20.2474 20.0256L19.8353 19.6135C19.8005 19.6523 19.7645 19.6903 19.7272 19.7275C19.6899 19.7648 19.6519 19.8009 19.6131 19.8357L20.0252 20.2478C20.0303 20.2528 20.0356 20.2575 20.0411 20.2617C20.0664 20.2169 20.0982 20.1746 20.1364 20.1364C20.1745 20.0984 20.2165 20.0667 20.2612 20.0415Z" fill="#971C4E"/>
</svg>
