<svg width="24" height="24" viewBox="0 0 24 24" fill="none" xmlns="http://www.w3.org/2000/svg">
<path d="M15.8517 2.71973C12.2254 -0.906575 6.34602 -0.906575 2.71972 2.71973C-0.906576 6.34603 -0.906572 12.2254 2.71972 15.8517C6.34602 19.478 12.2254 19.478 15.8517 15.8517C19.478 12.2254 19.478 6.34602 15.8517 2.71973ZM4.07446 14.497C1.19636 11.6189 1.19636 6.95255 4.07446 4.07445C6.95256 1.19636 11.6189 1.19636 14.497 4.07445C17.3751 6.95255 17.3751 11.6189 14.497 14.497C11.6189 17.3751 6.95256 17.3751 4.07446 14.497Z" fill="#611232"/>
<path d="M23.3913 20.4345L20.1257 17.1526C19.5922 16.6164 18.8408 16.4327 18.158 16.6015L16.9909 15.4286C16.763 15.7171 16.5178 15.9945 16.2547 16.2589C15.9917 16.5233 15.7156 16.7697 15.4286 16.9987L16.6229 18.1991C16.4838 18.8662 16.6714 19.5884 17.1867 20.1063L20.4523 23.3883C21.2639 24.2039 22.5797 24.2039 23.3913 23.3883C24.2029 22.5726 24.2029 21.2502 23.3913 20.4345Z" fill="#611232"/>
</svg>
