<svg width="24" height="24" viewBox="0 0 24 24" fill="none" xmlns="http://www.w3.org/2000/svg">
<path d="M20.1428 16.2857H16.7143C16.4776 16.2857 16.2857 16.4776 16.2857 16.7143V20.1428C16.2857 20.3795 16.4776 20.5714 16.7143 20.5714H20.1428C20.3795 20.5714 20.5714 20.3795 20.5714 20.1428V16.7143C20.5714 16.4776 20.3795 16.2857 20.1428 16.2857Z" fill="#611232"/>
<path d="M15.8571 12.8571H13.2857C13.049 12.8571 12.8571 13.049 12.8571 13.2857V15.8571C12.8571 16.0938 13.049 16.2857 13.2857 16.2857H15.8571C16.0938 16.2857 16.2857 16.0938 16.2857 15.8571V13.2857C16.2857 13.049 16.0938 12.8571 15.8571 12.8571Z" fill="#611232"/>
<path d="M23.5714 20.5714H21C20.7633 20.5714 20.5714 20.7633 20.5714 21V23.5714C20.5714 23.8081 20.7633 24 21 24H23.5714C23.8081 24 24 23.8081 24 23.5714V21C24 20.7633 23.8081 20.5714 23.5714 20.5714Z" fill="#611232"/>
<path d="M23.5714 12.8571H21.8571C21.6204 12.8571 21.4286 13.049 21.4286 13.2857V15C21.4286 15.2367 21.6204 15.4286 21.8571 15.4286H23.5714C23.8081 15.4286 24 15.2367 24 15V13.2857C24 13.049 23.8081 12.8571 23.5714 12.8571Z" fill="#611232"/>
<path d="M15 21.4286H13.2857C13.049 21.4286 12.8571 21.6205 12.8571 21.8571V23.5714C12.8571 23.8081 13.049 24 13.2857 24H15C15.2367 24 15.4286 23.8081 15.4286 23.5714V21.8571C15.4286 21.6205 15.2367 21.4286 15 21.4286Z" fill="#611232"/>
<path d="M22.2857 0H14.5714C14.1168 0 13.6807 0.180612 13.3593 0.502103C13.0378 0.823593 12.8571 1.25963 12.8571 1.71429V9.42857C12.8571 9.88323 13.0378 10.3193 13.3593 10.6408C13.6807 10.9622 14.1168 11.1429 14.5714 11.1429H22.2857C22.7404 11.1429 23.1764 10.9622 23.4979 10.6408C23.8194 10.3193 24 9.88323 24 9.42857V1.71429C24 1.25963 23.8194 0.823593 23.4979 0.502103C23.1764 0.180612 22.7404 0 22.2857 0ZM20.5714 7.28571C20.5714 7.39938 20.5263 7.50839 20.4459 7.58876C20.3655 7.66913 20.2565 7.71429 20.1429 7.71429H16.7143C16.6006 7.71429 16.4916 7.66913 16.4112 7.58876C16.3309 7.50839 16.2857 7.39938 16.2857 7.28571V3.85714C16.2857 3.74348 16.3309 3.63447 16.4112 3.5541C16.4916 3.47372 16.6006 3.42857 16.7143 3.42857H20.1429C20.2565 3.42857 20.3655 3.47372 20.4459 3.5541C20.5263 3.63447 20.5714 3.74348 20.5714 3.85714V7.28571Z" fill="#611232"/>
<path d="M9.42857 0H1.71429C1.25963 0 0.823593 0.180612 0.502103 0.502103C0.180612 0.823593 0 1.25963 0 1.71429V9.42857C0 9.88323 0.180612 10.3193 0.502103 10.6408C0.823593 10.9622 1.25963 11.1429 1.71429 11.1429H9.42857C9.88323 11.1429 10.3193 10.9622 10.6408 10.6408C10.9622 10.3193 11.1429 9.88323 11.1429 9.42857V1.71429C11.1429 1.25963 10.9622 0.823593 10.6408 0.502103C10.3193 0.180612 9.88323 0 9.42857 0ZM7.71429 7.28571C7.71429 7.39938 7.66913 7.50839 7.58876 7.58876C7.50839 7.66913 7.39938 7.71429 7.28571 7.71429H3.85714C3.74348 7.71429 3.63447 7.66913 3.5541 7.58876C3.47372 7.50839 3.42857 7.39938 3.42857 7.28571V3.85714C3.42857 3.74348 3.47372 3.63447 3.5541 3.5541C3.63447 3.47372 3.74348 3.42857 3.85714 3.42857H7.28571C7.39938 3.42857 7.50839 3.47372 7.58876 3.5541C7.66913 3.63447 7.71429 3.74348 7.71429 3.85714V7.28571Z" fill="#611232"/>
<path d="M9.42857 12.8571H1.71429C1.25963 12.8571 0.823593 13.0377 0.502103 13.3592C0.180612 13.6807 0 14.1168 0 14.5714V22.2857C0 22.7404 0.180612 23.1764 0.502103 23.4979C0.823593 23.8194 1.25963 24 1.71429 24H9.42857C9.88323 24 10.3193 23.8194 10.6408 23.4979C10.9622 23.1764 11.1429 22.7404 11.1429 22.2857V14.5714C11.1429 14.1168 10.9622 13.6807 10.6408 13.3592C10.3193 13.0377 9.88323 12.8571 9.42857 12.8571ZM7.71429 20.1428C7.71429 20.2565 7.66913 20.3655 7.58876 20.4459C7.50839 20.5263 7.39938 20.5714 7.28571 20.5714H3.85714C3.74348 20.5714 3.63447 20.5263 3.5541 20.4459C3.47372 20.3655 3.42857 20.2565 3.42857 20.1428V16.7143C3.42857 16.6006 3.47372 16.4916 3.5541 16.4112C3.63447 16.3309 3.74348 16.2857 3.85714 16.2857H7.28571C7.39938 16.2857 7.50839 16.3309 7.58876 16.4112C7.66913 16.4916 7.71429 16.6006 7.71429 16.7143V20.1428Z" fill="#611232"/>
</svg>
