<svg width="21" height="24" viewBox="0 0 21 24" fill="none" xmlns="http://www.w3.org/2000/svg">
<path d="M17.2896 2.96074C13.3304 -0.990141 6.91646 -0.987371 2.96281 2.97182C-0.990834 6.92824 -0.988063 13.3422 2.9739 17.2958L9.32965 23.6654C9.3352 23.6682 9.33797 23.6737 9.33797 23.6737C9.77849 24.1115 10.4933 24.1087 10.9311 23.6654L17.2896 17.2958C17.2951 17.2958 17.2951 17.2931 17.2979 17.2875C21.2516 13.3283 21.2488 6.91715 17.2896 2.96074ZM5.62813 10.1394C5.62813 7.65413 7.64513 5.63714 10.1304 5.63714C12.6156 5.63714 14.6326 7.65413 14.6326 10.1394C14.6326 12.6246 12.6156 14.6416 10.1304 14.6416C7.64513 14.6416 5.62813 12.6246 5.62813 10.1394Z" fill="#611232"/>
</svg>
