<svg width="27" height="26" viewBox="0 0 27 26" fill="none" xmlns="http://www.w3.org/2000/svg">
<circle cx="8.5" cy="8" r="8" fill="#971C4E" fill-opacity="0.15"/>
<path fill-rule="evenodd" clip-rule="evenodd" d="M14.5 7.5C10.9102 7.5 8 10.4102 8 14C8 17.5898 10.9102 20.5 14.5 20.5C18.0898 20.5 21 17.5898 21 14C21 10.4102 18.0898 7.5 14.5 7.5ZM7 14C7 9.85785 10.3579 6.5 14.5 6.5C18.6421 6.5 22 9.85785 22 14C22 18.1421 18.6421 21.5 14.5 21.5C10.3579 21.5 7 18.1421 7 14Z" fill="#971C4E"/>
<path d="M13.5 15.5C13.5 14.9477 13.0523 14.5 12.5 14.5C11.9477 14.5 11.5 14.9477 11.5 15.5C11.5 16.0523 11.9477 16.5 12.5 16.5C13.0523 16.5 13.5 16.0523 13.5 15.5Z" fill="#971C4E"/>
<path d="M15 11.5C15 10.9477 14.5523 10.5 14 10.5C13.4477 10.5 13 10.9477 13 11.5C13 12.0523 13.4477 12.5 14 12.5C14.5523 12.5 15 12.0523 15 11.5Z" fill="#971C4E"/>
<path d="M18 15C18 14.4477 17.5523 14 17 14C16.4477 14 16 14.4477 16 15C16 15.5523 16.4477 16 17 16C17.5523 16 18 15.5523 18 15Z" fill="#971C4E"/>
<path fill-rule="evenodd" clip-rule="evenodd" d="M13 4.5C13 4.22386 13.2239 4 13.5 4H15.5C15.7761 4 16 4.22386 16 4.5C16 4.77614 15.7761 5 15.5 5H15V8C15 8.27615 14.7761 8.5 14.5 8.5C14.2239 8.5 14 8.27615 14 8V5H13.5C13.2239 5 13 4.77614 13 4.5Z" fill="#971C4E"/>
<path fill-rule="evenodd" clip-rule="evenodd" d="M14.5 19.5C14.7761 19.5 15 19.7239 15 20V23H15.5C15.7761 23 16 23.2239 16 23.5C16 23.7761 15.7761 24 15.5 24H13.5C13.2239 24 13 23.7761 13 23.5C13 23.2239 13.2239 23 13.5 23H14V20C14 19.7239 14.2239 19.5 14.5 19.5Z" fill="#971C4E"/>
<path fill-rule="evenodd" clip-rule="evenodd" d="M8.8431 21.7781C8.64785 21.9734 8.33125 21.9734 8.136 21.7781L6.72179 20.3639C6.52653 20.1687 6.52653 19.8521 6.72179 19.6568C6.91706 19.4616 7.23364 19.4616 7.4289 19.6568L7.78245 20.0104L9.9038 17.8891C10.099 17.6938 10.4156 17.6938 10.6109 17.8891C10.8061 18.0843 10.8061 18.4009 10.6109 18.5962L8.48955 20.7175L8.8431 21.071C9.0384 21.2663 9.0384 21.5829 8.8431 21.7781Z" fill="#971C4E"/>
<path fill-rule="evenodd" clip-rule="evenodd" d="M18.3891 10.1108C18.1938 9.9156 18.1938 9.599 18.3891 9.40375L20.5104 7.28245L20.1569 6.92887C19.9616 6.73361 19.9616 6.41703 20.1569 6.22176C20.3521 6.0265 20.6687 6.0265 20.864 6.22176L22.2782 7.636C22.4734 7.83125 22.4734 8.1478 22.2782 8.3431C22.0829 8.53835 21.7663 8.53835 21.5711 8.3431L21.2175 7.98955L19.0962 10.1108C18.9009 10.3061 18.5843 10.3061 18.3891 10.1108Z" fill="#971C4E"/>
<path fill-rule="evenodd" clip-rule="evenodd" d="M6.72182 8.3432C6.52656 8.1479 6.52656 7.83135 6.72182 7.63605L8.13605 6.22185C8.3313 6.02659 8.6479 6.02659 8.84315 6.22185C9.0384 6.41712 9.0384 6.7337 8.84315 6.92896L8.4896 7.2825L10.6109 9.40385C10.8061 9.5991 10.8061 9.9157 10.6109 10.1109C10.4156 10.3062 10.099 10.3062 9.9038 10.1109L7.7825 7.9896L7.42893 8.3432C7.23367 8.53845 6.91708 8.53845 6.72182 8.3432Z" fill="#971C4E"/>
<path fill-rule="evenodd" clip-rule="evenodd" d="M18.3891 17.8891C18.5844 17.6939 18.901 17.6939 19.0962 17.8891L21.2175 20.0105L21.5711 19.6569C21.7664 19.4616 22.0829 19.4616 22.2782 19.6569C22.4735 19.8522 22.4735 20.1688 22.2782 20.364L20.864 21.7782C20.6687 21.9735 20.3521 21.9735 20.1569 21.7782C19.9616 21.583 19.9616 21.2664 20.1569 21.0711L20.5104 20.7176L18.3891 18.5963C18.1938 18.401 18.1938 18.0844 18.3891 17.8891Z" fill="#971C4E"/>
<path fill-rule="evenodd" clip-rule="evenodd" d="M5 15.5001C4.72386 15.5001 4.5 15.2762 4.5 15.0001V13.0001C4.5 12.724 4.72386 12.5001 5 12.5001C5.27614 12.5001 5.5 12.724 5.5 13.0001V13.5001H8.5C8.77615 13.5001 9 13.724 9 14.0001C9 14.2762 8.77615 14.5001 8.5 14.5001H5.5V15.0001C5.5 15.2762 5.27614 15.5001 5 15.5001Z" fill="#971C4E"/>
<path fill-rule="evenodd" clip-rule="evenodd" d="M20 14.0001C20 13.724 20.2239 13.5001 20.5 13.5001H23.5V13.0001C23.5 12.724 23.7239 12.5001 24 12.5001C24.2761 12.5001 24.5 12.724 24.5 13.0001V15.0001C24.5 15.2762 24.2761 15.5001 24 15.5001C23.7239 15.5001 23.5 15.2762 23.5 15.0001V14.5001H20.5C20.2239 14.5001 20 14.2762 20 14.0001Z" fill="#971C4E"/>
</svg>
